<?xml version="1.0" encoding="utf-8"?>
<!-- Generator: Adobe Illustrator 19.0.0, SVG Export Plug-In . SVG Version: 6.00 Build 0)  -->
<svg version="1.1" id="Ebene_1" xmlns="http://www.w3.org/2000/svg" xmlns:xlink="http://www.w3.org/1999/xlink" x="0px" y="0px"
	 viewBox="0 0 283.5 220" style="enable-background:new 0 0 283.5 220;" xml:space="preserve">
<style type="text/css">
	.st0{fill:#FFFFFF;}
</style>
<g>
	<g id="Ringe_x5F_Schwarz_1_">
		<g id="Blau1_2_">
			<path class="st0" d="M95.3,182.1c-2.6,2.6-5.8,4.6-9.4,5.8l-1.3,2.6l1,2.5c5-1.3,9.5-3.9,13-7.5l-0.6-2.8L95.3,182.1z"/>
			<path id="Blue_Ring_2_" class="st0" d="M78.4,136.6c-15.8,0-28.6,12.8-28.6,28.6c0,15.8,12.8,28.6,28.6,28.6c0.8,0,1.7,0,2.5-0.1
				l0.8-2.3l-0.8-2.5c-0.8,0.1-1.6,0.1-2.5,0.1c-13.1,0-23.8-10.7-23.8-23.8c0-13.2,10.7-23.8,23.8-23.8L80,139L78.4,136.6z"/>
		</g>
		<g id="Grün1_2_">
			<path class="st0" d="M188.1,174.6c3.5,3.5,5.9,8.1,6.7,13.3l2.2,2l2.7-0.9c-0.6-6.9-3.6-13.1-8.3-17.7l-2.8,0.5L188.1,174.6z"/>
			<path class="st0" d="M171.3,220c15,0,27.3-11.6,28.5-26.3l-2.4-1.6l-2.3,0.8c-0.8,12.5-11.1,22.3-23.8,22.3l-1.6,2.4L171.3,220z"
				/>
		</g>
		<path id="Rot_2_" class="st0" d="M230.8,165.2c0,15.8-12.8,28.6-28.6,28.6c-14.9,0-27.2-11.5-28.5-26.1l2.6-0.7l2.3,1.7
			c1.7,11.5,11.6,20.3,23.5,20.3c13.1,0,23.8-10.7,23.8-23.8c0-13.2-10.7-23.8-23.8-23.8c-12.7,0-23,9.9-23.8,22.3l-2.9,0.8
			l-1.8-1.6c1.2-14.7,13.5-26.3,28.5-26.3C218,136.6,230.8,149.4,230.8,165.2z"/>
		<g id="Schwarz1_2_">
			<path class="st0" d="M140.3,136.6c-15,0-27.3,11.6-28.5,26.3l2,1.4l2.7-0.6c0.8-12.5,11.1-22.3,23.8-22.3l1.6-2.4L140.3,136.6z"
				/>
			<path class="st0" d="M123.5,182.1c-3.5-3.5-5.9-8.1-6.7-13.3l-2.1-1.7l-2.8,0.7c0.6,6.9,3.6,13.1,8.3,17.7L123.5,182.1z"/>
		</g>
		<g id="Gelb_2_">
			<path class="st0" d="M106.9,167.7l-1.4-2.5l1.5-2.3c0.8-0.1,1.6-0.1,2.5-0.1c14.9,0,27.2,11.5,28.5,26.1l-2.4,0.7l-2.5-1.8
				c-1.7-11.5-11.6-20.3-23.5-20.3C108.5,167.6,107.7,167.6,106.9,167.7z"/>
			<path class="st0" d="M137.9,193.7c-1.2,14.7-13.5,26.3-28.5,26.3c-15.8,0-28.6-12.8-28.6-28.6c0-13.3,9.1-24.5,21.4-27.7l0.8,2.2
				l-1,2.8c-9.5,3.1-16.4,12.1-16.4,22.6c0,13.1,10.7,23.8,23.8,23.8c12.7,0,23-9.9,23.8-22.3l2.3-0.6L137.9,193.7z"/>
		</g>
		<g id="Schwarz2_2_">
			<path class="st0" d="M120.1,185.4c5.2,5.2,12.3,8.4,20.2,8.4c0.8,0,1.7,0,2.5-0.1l1.1-2.3l-1-2.5c-0.8,0.1-1.6,0.1-2.5,0.1
				c-6.6,0-12.5-2.7-16.8-7l-2.7,0.7L120.1,185.4z"/>
			<path class="st0" d="M157.2,182.1c-2.6,2.6-5.8,4.6-9.4,5.8l-1.1,2.7l0.9,2.3c5-1.3,9.5-3.9,13-7.5l-0.3-2.8L157.2,182.1z"/>
		</g>
		<g id="Grün2_2_">
			<path class="st0" d="M191.5,171.2c-5.2-5.2-12.3-8.4-20.2-8.4c-0.8,0-1.7,0-2.5,0.1l-1.2,2.3l1.2,2.5c0.8-0.1,1.6-0.1,2.5-0.1
				c6.6,0,12.5,2.7,16.8,7L191.5,171.2z"/>
			<path class="st0" d="M171.3,215.2c-13.1,0-23.8-10.7-23.8-23.8c0-10.6,6.9-19.5,16.4-22.6l1.1-2.7l-0.9-2.3
				c-12.3,3.2-21.4,14.4-21.4,27.7c0,15.8,12.8,28.6,28.6,28.6V215.2z"/>
		</g>
		<path id="Blau2_2_" class="st0" d="M78.4,141.4c13.1,0,23.8,10.7,23.8,23.8c0,6.6-2.7,12.5-7,16.8l3.4,3.4
			c5.2-5.2,8.4-12.3,8.4-20.2c0-15.8-12.8-28.6-28.6-28.6V141.4z"/>
		<path id="Schwarz3_2_" class="st0" d="M160.5,185.4c5.2-5.2,8.4-12.3,8.4-20.2c0-15.8-12.8-28.6-28.6-28.6v4.8
			c13.1,0,23.8,10.7,23.8,23.8c0,6.6-2.7,12.5-7,16.8L160.5,185.4z"/>
	</g>
	<g id="Fahne_x5F_Schwarz_1_">
		<polygon class="st0" points="280.6,118 187.1,118 181.9,112.2 187.1,106.3 280.6,106.3 		"/>
		<polygon class="st0" points="187.1,118 93.5,118 88.3,112.2 93.5,106.3 187.1,106.3 		"/>
		<rect y="106.3" class="st0" width="93.5" height="11.7"/>
	</g>
	<g>
		<path class="st0" d="M273.3,41.5c7.1,4.2,10.2,11.5,10.2,18.4c0,13.5-9,24.2-29,24.2h-44.2V1.6h44.7c20.4,0,27.3,11.6,27.3,22.8
			C282.2,31.1,278.2,38.5,273.3,41.5z M254.9,72.2c11,0,15.9-5.5,15.9-12.3c0-6.8-4.6-12.3-15.3-12.3H223v24.6H254.9z M255.3,35.6
			c9.3,0,14.2-4.3,14.2-11.1c0-7.3-6.1-11.1-14.5-11.1H223v22.1H255.3z"/>
		<g>
			<path class="st0" d="M0,1.6v82.6h35.9c10.9,0,19.5-2.5,26.2-6.5l-2.1-6l-7.2-3c-4.5,2.3-9.8,3.6-16,3.6H12.8V13.5L8.2,5.6L0,1.6z
				"/>
			<path class="st0" d="M68.1,42.9c0,6.6-2,12.8-5.6,17.7l1.7,7.7l7.6,1.1c6.3-7.7,9.1-17.4,9.1-26.5l-6.4-4.2L68.1,42.9z"/>
			<path class="st0" d="M130.7,42.9c0,23.7-19.4,42.9-43.3,42.9c-23.9,0-43.3-19.2-43.3-42.9C44.2,19.2,63.6,0,87.5,0
				C111.4,0,130.7,19.2,130.7,42.9z M87.4,12c-16.8,0-30.5,13.8-30.5,30.9c0,17.1,13.6,30.9,30.5,30.9c16.8,0,30.5-13.8,30.5-30.9
				C117.9,25.8,104.3,12,87.4,12z"/>
			<path class="st0" d="M80.9,42.9c0-19.2-12.5-41.3-44.9-41.3H0l12.8,11.9h24.2c19.5,0,31.2,13.2,31.2,29.4H80.9z"/>
		</g>
		<path class="st0" d="M159.8,47.2c-19.4-1.1-25.4-11.8-25.4-22.8c0-11.2,6.9-22.8,27.3-22.8H202l-4.4,11.9l-35.9,0
			c-8.8,0-14.5,3.5-14.5,10.9c0,6.5,4.6,10,13.2,10.5l14.8,1c19.7,1.1,27,10.1,27,24c0,13.5-8.9,24.3-29.2,24.3h-43.1l4.4-11.9
			l38.9,0c11.6,0,16.1-6,16.1-12.3c0-7.5-5-10.9-14.8-11.7L159.8,47.2z"/>
	</g>
</g>
</svg>
