<?xml version="1.0" encoding="utf-8"?>
<!-- Generator: Adobe Illustrator 19.0.0, SVG Export Plug-In . SVG Version: 6.00 Build 0)  -->
<svg version="1.1" id="Ebene_1" xmlns="http://www.w3.org/2000/svg" xmlns:xlink="http://www.w3.org/1999/xlink" x="0px" y="0px"
	 viewBox="0 0 91.9 91.9" style="enable-background:new 0 0 91.9 91.9;" xml:space="preserve">
<style type="text/css">
	.st0{fill:#499EA0;}
</style>
<path class="st0" d="M80.2,0H11.7C5.3,0,0,5.3,0,11.7v68.5c0,6.5,5.3,11.7,11.7,11.7h68.5c6.5,0,11.7-5.3,11.7-11.7V11.7
	C91.9,5.3,86.7,0,80.2,0z M28.9,39.1c0,0,2.2-2.5,5.2-0.2l8.4,6.9V20.4c0,0,0.8-3.2,4.3-3c0,0,3.2,0.2,2.8,5.7l0.2,22.7l9.8-7.8
	c0,0,4.8-0.5,4.2,4.7L52.2,53l-3.8,3.2c0,0-2.6,2.3-5.2-0.2c-2.6-2.5-14.6-12.2-14.6-12.2S26.9,41.2,28.9,39.1z M79.7,70.5
	C77.5,81.7,67,82.3,67,82.3H29C13.4,83.2,12.4,71,12.4,71l-0.2-14.8c0-6.2,3-6,3-6c4.8-0.8,5,3.8,5,3.8v7.3l-0.2,8
	c0.3,3.8,5.7,5.2,5.7,5.2l38.8-0.2c6.7,0.3,7.2-4.5,7.2-4.5v-14c-0.3-5.5,2-6,2-6c5.5-1.3,6,3,6,3V70.5z"/>
</svg>
