<?xml version="1.0" encoding="utf-8"?>
<!-- Generator: Adobe Illustrator 19.0.0, SVG Export Plug-In . SVG Version: 6.00 Build 0)  -->
<svg version="1.1" id="Ebene_1" xmlns="http://www.w3.org/2000/svg" xmlns:xlink="http://www.w3.org/1999/xlink" x="0px" y="0px"
	 viewBox="0 0 91.9 91.9" style="enable-background:new 0 0 91.9 91.9;" xml:space="preserve">
<style type="text/css">
	.st0{fill:#FDFDFD;}
</style>
<path id="XMLID_189_" class="st0" d="M79,0H13C5.8,0,0,5.8,0,12.9V79C0,86.1,5.8,91.9,13,91.9H79C86.2,91.9,92,86.1,92,79V12.9
	C92,5.8,86.2,0,79,0z M69.6,69.1C65.4,72.8,58.6,72,58.6,72l0-0.1c-3.7-0.6-14-3.1-25.3-13.9c0,0-14.3-14.3-13.3-27.1
	c0,0,0-0.2,0.1-0.5c0.3-2.3,1.1-5.4,3.3-8.4c0-0.1,0.1-0.2,0.3-0.4c0.1-0.1,0.2-0.3,0.3-0.4c0,0,0.1-0.1,0.3-0.2
	c0.6-0.5,1.7-1.1,3.4-1.8c0,0,2.9-0.8,5,0.2c0.1,0,0.2,0,0.3,0c0,0,0.2,0.2,0.7,0.7c0.2,0.2,0.4,0.4,0.6,0.7c0,0,0,0,0,0
	c0.5,0.7,1.2,1.8,2.1,3.3c1.2,1.9,2.4,4,2.8,5.7c0.2,0.4,0.3,0.7,0.5,1.2c0,0-0.1,0.3-0.6,1l0,0.1l-0.6,0.6
	c-0.4,0.4-0.8,0.9-1.4,1.4l-2.5,2.5c-0.1,0.1-0.2,0.3-0.3,0.5c-1.3,1.5-0.9,3.5-0.5,4.6c1.9,4.1,6.4,11.5,16.6,17.2
	c1,0.2,2.4,0.1,4.2-0.9c1.8-1.8,4.2-4.2,5-5.3c0,0,0.1,0,0.2,0.1c1-0.7,2.5,0.1,2.5,0.1c12.8,5.9,11.4,8.3,11.3,8.5
	C73.3,63.2,72.9,67,69.6,69.1z"/>
</svg>
