<?xml version="1.0" encoding="utf-8"?>
<!-- Generator: Adobe Illustrator 19.0.0, SVG Export Plug-In . SVG Version: 6.00 Build 0)  -->
<svg version="1.1" id="Ebene_1" xmlns="http://www.w3.org/2000/svg" xmlns:xlink="http://www.w3.org/1999/xlink" x="0px" y="0px"
	 viewBox="0 0 91.9 91.9" style="enable-background:new 0 0 91.9 91.9;" xml:space="preserve">
<style type="text/css">
	.st0{fill:#FFFFFF;}
</style>
<path id="XMLID_92_" class="st0" d="M79.1,0H12.9C5.8,0,0,5.8,0,12.9v66.2c0,7.2,5.8,12.9,12.9,12.9h66.2c7.2,0,12.9-5.8,12.9-12.9
	V12.9C92.1,5.8,86.3,0,79.1,0z M56,47.7h-7.6l-0.2,28.7l-10.7,0.2l-0.1-28.8l-7.2-0.1l0.1-9.8l7.3-0.2c0,0-1.9-15.7,4.8-17.7
	c0,0,3.4-1.4,14.7-1.4v9.9l-6.3,0.1c0,0-2.8,0.2-2.4,4.6l-0.1,4.2l9,0.3L56,47.7z"/>
</svg>
