<?xml version="1.0" encoding="utf-8"?>
<!-- Generator: Adobe Illustrator 19.0.0, SVG Export Plug-In . SVG Version: 6.00 Build 0)  -->
<svg version="1.1" id="Ebene_1" xmlns="http://www.w3.org/2000/svg" xmlns:xlink="http://www.w3.org/1999/xlink" x="0px" y="0px"
	 viewBox="0 0 91.9 91.9" style="enable-background:new 0 0 91.9 91.9;" xml:space="preserve">
<style type="text/css">
	.st0{fill:#FFFFFF;}
</style>
<path id="XMLID_93_" class="st0" d="M80,0.2H11.6C5.1,0.2-0.2,5.5-0.2,12v68.5c0,6.5,5.3,11.7,11.7,11.7H80
	c6.5,0,11.7-5.3,11.7-11.7V12C91.8,5.5,86.5,0.2,80,0.2z M26,39.3c0,0,2.2-2.5,5.2-0.2l8.4,6.9V20.6c0,0,0.8-3.2,4.3-3
	c0,0,3.2,0.2,2.8,5.7L46.9,46l9.8-7.8c0,0,4.8-0.5,4.2,4.7L49.3,53.2l-3.8,3.2c0,0-2.6,2.3-5.2-0.2S25.8,44,25.8,44S24,41.5,26,39.3
	z M78.6,70.7C76.5,81.9,66,82.6,66,82.6H28c-15.7,0.8-16.7-11.3-16.7-11.3l-0.2-14.8c0-6.2,3-6,3-6c4.8-0.8,5,3.8,5,3.8v7.3l-0.2,8
	c0.3,3.8,5.7,5.2,5.7,5.2l38.8-0.2c6.7,0.3,7.2-4.5,7.2-4.5v-14c-0.3-5.5,2-6,2-6c5.5-1.3,6,3,6,3V70.7z"/>
</svg>
